<?xml version="1.0" encoding="utf-8"?>
<!-- Generator: Adobe Illustrator 25.4.1, SVG Export Plug-In . SVG Version: 6.00 Build 0)  -->
<svg version="1.1" id="Capa_1" xmlns="http://www.w3.org/2000/svg" xmlns:xlink="http://www.w3.org/1999/xlink" x="0px" y="0px"
	 viewBox="0 0 1920 1080" style="enable-background:new 0 0 1920 1080;" xml:space="preserve">
<style type="text/css">
	.st0{fill:#FDFDFD;}
	.st1{fill:#A3D3FB;}
	.st2{fill:#1788EB;}
	.st3{fill:#111111;}
	.st4{fill:#0D0D0D;}
	.st5{fill:#506981;}
	.st6{fill:#223F58;}
	.st7{fill:#85A6C3;}
	.st8{fill:#446E9D;}
	.st9{fill:#1D2E3C;}
</style>
<g>
	<g>
		<path class="st0" d="M457,816c0-179.67,0-359.33,0-539c230.33,0,460.67,0,691,0c0,179.67,0,359.33,0,539
			C917.67,816,687.33,816,457,816z M689.99,361.61c0.19-0.31,0.38-0.62,0.56-0.93c-0.36,0.2-0.71,0.39-1.07,0.59
			c-0.52,0.5-1.05,0.99-1.57,1.49c-8.75,10.56-19.57,9.75-31.52,3.3c0.83,1.7,1.49,2.71,2.46,3.43
			c10.92,8.13,10.86,10.48,4.35,22.05c-0.47,0.84-0.72,1.78-1.07,2.67l-0.13,0.19c0,0,0.18-0.26,0.18-0.26
			c3.23-2.1,6.14-4.81,9.78-6.12c3.4-1.23,7.56-0.97,11.39-1.36c0.21,1.12,0.07,2.41,0.68,3.35c8.54,13.14,16.68,26.48,25.97,39.23
			c5.98,8.21,5.35,16.47,4.53,25.33c-1.15,12.45-1.17,24.97-1.68,37.46l-0.36,0.27c-0.87,0.56-1.73,1.11-2.6,1.67
			c-5.52-1.02-11.04-2.04-16.56-3.06c-1.31-0.46-2.62-0.92-3.94-1.39c1.18,1.13,2.35,2.26,3.53,3.4
			c13.26,6.68,10.17,15.88,5.16,25.84c8.17-10.39,18.14-13.18,30.89-7.26c0.41,0.19,1.11-0.04,1.67-0.07l0.18,0.19l-0.23-0.14
			c-2.2-2.06-4.69-3.95-6.5-6.22c-1.56-1.95-2.33-4.34-3.46-6.53c0.5-0.48,0.99-0.96,1.49-1.43c0,0,0.08-0.04,0.08-0.04
			c3.41-1.02,7.03-1.72,10.2-3.12c13.78-6.08,27.2-12.78,41.27-18.34c5.24-2.07,11.92-2.47,17.87-2.24
			c19.16,0.75,38.28,2.16,57.42,3.31c5.22,2.73,10.32,5.63,15.72,8.06c1.58,0.71,4.03,0.07,6.08,0.06c-0.84-1.71-1.11-4-2.61-5.02
			c-4.55-3.09-9.57-5.68-14.41-8.47c-0.51-1.08-0.83-2.26-1.56-3.22c-5.98-7.95-12.49-15.64-17.93-23.84
			c-5-7.54-8.92-15.59-13.14-23.47c-0.76-1.41-1.05-3.16-0.92-4.72c1.43-16.93,2.98-33.85,4.5-50.77c4.64,0.96,9.27,1.93,13.91,2.89
			c0.58-0.35,1.16-0.7,1.74-1.05c-14.8-5.34-16.77-13.93-10.7-24.6c0.34-0.6,0.21-1.4,0.3-2.1c-7.24,10.46-17.14,13.11-30.04,7.81
			c-0.24-0.1-0.56-0.05-0.84-0.07c-0.27-0.39-0.64-0.49-1.13-0.31c-0.62-0.09-1.25-0.18-1.87-0.27c0.38,0.29,0.75,0.57,1.13,0.86
			c0.59,0.45,1.17,0.91,1.76,1.36c3.56,4.11,12.31,5.35,10.05,12.69c-6.61,2.22-14.01,3.39-17.52,9.66
			c-0.44,0.79-2.14,1.19-3.34,1.57c-5.45,1.74-10.95,3.34-16.39,5.11c-8.21,2.67-15.16,7.61-25.2,6.64
			c-19.01-1.84-38.17-2.67-57.26-3.91c-5.26-1.89-5.63-5.33-4.04-9.27c1.32-3.27,2.86-6.48,4.3-9.72
			C689.89,362.39,690.02,362.02,689.99,361.61z M816.34,738.53c1.65,0.01,3.3,0.01,4.94,0.02c2.29-0.54,6.61-1.29,6.56-1.6
			c-0.62-4.21-0.79-8.88-3.24-12.37c-1.91-2.71-6.78-1.43-11.52,2.4c2.38-0.4,3.97-1,5.44-0.83c1.74,0.2,3.37,1.05,5.05,1.61
			c-1.6,0.78-3.16,1.63-4.81,2.31c-0.73,0.3-1.65,0.26-2.49,0.37C810.7,733.83,810.71,735.25,816.34,738.53z M847.09,701.36
			c1.66,0,3.31,0,4.97,0c2.3-0.52,6.63-1.24,6.59-1.53c-0.59-4.21-0.44-9.17-3.18-12.31c-2.56-2.94-7.79-1.55-12.56,1.82
			c5.12,0.58,10.48-2.72,12.62,3.16c-3.1,0.28-5.78,0.52-8.47,0.76c-2.43,1.06-4.85,2.13-7.28,3.19c1.05-4.46-0.06-7.99-5.85-9.5
			c-2.04,0.06-4.08,0.12-6.12,0.18c-2.17,0.51-6.17,0.93-6.22,1.56c-0.47,6.13-0.28,12.3-0.28,18.46c0.98,0.02,1.96,0.03,2.94,0.05
			c0.16-1.89,0.32-3.77,0.48-5.66c4.66-0.51,10.33,2.37,13.58-2.83c0.5-0.73,0.99-1.46,1.49-2.2
			C842.23,698.12,844.66,699.74,847.09,701.36z M913.63,698.82c-1.11-1.91-2.22-3.82-3.34-5.73c2.51-5.94,8.51-2.89,13.71-3.01
			c-6.89-5.77-11.07-5.34-16.14,1.1c-2.11,4.02-0.75,7.07,3.7,9.26c7.46,2.33,7.99,2.23,11.66-2.67
			C919.85,698.14,916.74,698.48,913.63,698.82z M689.62,724.73c-1.71,0.24-4.89,0.4-4.92,0.72c-0.33,4.42-0.22,8.87-0.22,13.31
			c0.77,0.03,1.55,0.05,2.32,0.08c0.95-3.81,1.9-7.62,2.85-11.42c1.6-1,3.2-2,4.79-3C692.84,724.52,691.23,724.62,689.62,724.73z
			 M783.44,705.78c3.62-6.41,1.7-12.79,1.2-19.18c-0.92-0.01-1.84-0.02-2.76-0.03c0,5.45,0,10.9,0,16.35
			c-2.1,1.03-4.2,2.05-6.3,3.08c0.27,0.55,0.54,1.09,0.81,1.64C778.74,707.03,781.09,706.41,783.44,705.78z M850.4,730.21
			c-4.61-0.54-9.05-0.08-8.53,4.83c0.46,4.33,5.03,4.22,9.04,3.85c1.07-0.1,2.09-0.59,3.13-0.9c1.14-0.08,3.25-0.1,3.27-0.26
			c0.25-2.34,0.8-4.83,0.08-7.01c-0.8-2.41-2.23-5.65-4.48-6.51c-2.65-1-6.49,0.17-9.81,0.4c0.12,0.54,0.23,1.08,0.35,1.62
			c2.6,0,5.25-0.23,7.78,0.12c0.96,0.13,1.66,1.58,2.48,2.43C852.6,729.26,851.5,729.73,850.4,730.21z M771.92,700.89
			c1.17-0.36,3.29-0.61,3.36-1.08c0.35-2.32,0.74-4.84-0.02-7.01c-0.77-2.19-2.39-5.15-4.5-5.79c-2.81-0.85-6.44,0.23-9.72,0.47
			c0.12,0.63,0.24,1.26,0.36,1.89c2.62-0.11,5.27-0.44,7.84-0.19c0.9,0.09,1.61,1.6,2.41,2.46c-1.12,0.46-2.23,0.93-3.35,1.39
			c-4.59-0.52-9.04-0.07-8.53,4.81c0.44,4.26,4.99,4.25,9.02,3.88C769.85,701.63,770.88,701.18,771.92,700.89z M888.18,701.08
			c9.83,1.35,4.54-5.04,4.92-7.69c0.3-2.05-2.1-5.53-4.37-6.38c-2.63-0.98-6.43,0.21-9.72,0.46c0.07,0.7,0.13,1.39,0.2,2.09
			c3.67,0.38,9.08-3.16,10.63,3.01c-2.51,0.2-4.72,0.37-6.92,0.54c-4.34,0.09-6.31,2.37-5,5.41
			C879.69,702.6,883.9,702.57,888.18,701.08z M691.37,700.32c1.61,0.07,3.23,0.14,4.84,0.21c0-6.72,0-13.45,0-20.17
			c-1.11,0.03-2.22,0.06-3.33,0.1c0,2.22,0,4.45,0,6.67c-1.08-0.18-2.28-0.72-3.22-0.49c-3.73,0.88-8.99,1.14-10.61,3.26
			c-1.69,2.22-1.1,6.96,0.74,9.44C682.29,702.72,687.09,703.19,691.37,700.32z M640.19,697.6c0.1-2.19,0.19-4.38,0.29-6.58
			c-4.85-5.33-9.84-6.29-14.67-2.84c-3.96,2.83-4.21,8.23-0.53,11.34C629.48,703.07,635.01,702.36,640.19,697.6z M989.92,691.69
			c-2.07-4.38-6.2-6.66-11.25-4.86c-2.95,1.06-6.37,4.41-6.52,6.86c-0.15,2.48,2.8,6.28,5.61,7.43c4.59,1.87,9.39,0.58,11.69-4.03
			c0.21-0.36,0.42-0.72,0.63-1.08c0.07-1.1,0.15-2.19,0.22-3.29C990.61,692.27,990.48,691.93,989.92,691.69z M921.73,737.7
			c3.15-0.02,6.29-0.05,9.44-0.07c5.88-5.31,6.67-12.8,1.52-16.8c-4.14-3.21-8.66-3.18-12.75,0.1c-4.87,3.9-4.3,11.34,1.05,16.45
			C921.16,737.54,921.48,737.6,921.73,737.7z M665.44,723.01c-2.97,5.05-5.94,10.11-9.28,15.78c5.67-1.91,9.65-4.31,13.6-4.28
			c3.78,0.04,7.53,2.6,12.24,4.43c-1.06-2.11-1.62-3.4-2.34-4.63c-2.22-3.79-4.51-7.56-6.77-11.33c-1.25-1.4-2.49-2.81-3.74-4.21
			C667.91,720.19,666.68,721.6,665.44,723.01z M1026.63,688.86l-0.14-0.1c0.15-0.2,0.46-0.55,0.44-0.57
			c-4.42-3.03-9.21-2.54-12.44,1.24c-3.18,3.73-2.1,8.57,2.48,11.14c4.44,2.49,8.87,1.75,11.86-1.87c-3.49-0.3-7.08-0.6-10.66-0.9
			c0.05-0.83,0.1-1.67,0.15-2.5c2.7,0,5.43,0.21,8.09-0.08c1.7-0.19,3.28-1.12,4.92-1.71
			C1029.76,691.96,1028.2,690.41,1026.63,688.86z M950.42,719.91c-4.14,6.41-3.05,8.36,5.45,9.83c0.59,0.39,1.18,0.78,1.78,1.18
			c-1.28,2.08-2.56,4.15-3.84,6.23c0.47,0.22,0.95,0.44,1.42,0.65c2.35-2.45,4.7-4.89,6.48-6.74c1.75,2.2,3.39,4.27,5.03,6.34
			l-0.07-0.06c1.96,0.24,5.28,1.11,5.63,0.6c1.26-1.88,2.89-5.18,1.87-6.19c-2.18-2.18-5.92-3.27-9.17-4.88
			c1.46-2,3.44-4.7,5.42-7.41c-0.55-0.33-1.09-0.67-1.64-1c-2.73,2.9-5.46,5.8-7.96,8.45c-1.26-2.5-2.4-4.76-3.54-7.03
			C954.98,719.9,952.7,719.9,950.42,719.91z M1002.61,655.19c-2.52-3.21-4.83-6.44-7.47-9.46c-2.52-2.89-4.28-4.75,0.89-7.7
			c6.41-3.65,7.52-9.83,5.75-16.07c-1.77-6.24-6.82-10.01-14.25-10.68c-8.45-0.75-17-0.79-25.51-0.82c-1.25,0-3.59,1.73-3.61,2.69
			c-0.24,13.32-0.25,26.65,0.03,39.98c0.02,0.95,2.91,2.73,4.22,2.58c1.81-0.2,4.12-1.59,4.85-2.98c0.84-1.59,0.4-3.75,0.16-5.64
			c-0.47-3.69,1.33-4.57,5.7-5.04c7.97-0.86,12.29,2.09,14.99,7.73C990.95,655.17,995.23,657.49,1002.61,655.19z M721.77,655.09
			c-1.75-2.43-3.19-5.02-5.26-7.2c-3.89-4.09-4.98-6.76,0.74-11.32c10.02-7.99,4.32-22.91-9.2-25.02
			c-8.56-1.33-17.51-1.04-26.28-1.08c-1.34,0-3.82,2.18-3.85,3.39c-0.27,12.84-0.28,25.68,0.07,38.51c0.03,1.23,2.93,3.33,4.51,3.34
			c1.57,0,3.59-1.91,4.59-3.38c0.74-1.08,0.34-2.81,0.12-4.21c-0.69-4.46,1.78-5.4,6.8-5.78c6.85-0.51,10.46,1.85,13.2,6.61
			C709.99,653.82,713.41,658.24,721.77,655.09z M850.44,633.2c0,6.19-0.3,12.39,0.22,18.55c0.13,1.49,2.93,3.96,4.61,4.02
			c10.23,0.37,20.49,0.34,30.73,0.01c1.62-0.05,3.15-2.26,4.72-3.47c-1.58-1.18-3.09-3.28-4.75-3.38c-6.8-0.38-13.67-0.4-20.48-0.07
			c-6.01,0.29-5.3-2.88-5.28-6.01c0.02-3.1-0.73-6.37,5.26-6.07c5.39,0.27,10.85,0.33,16.2-0.14c1.71-0.15,3.18-2.28,4.75-3.5
			c-1.51-1.28-2.89-3.49-4.56-3.66c-5.06-0.5-10.25-0.48-15.34-0.14c-5.72,0.38-6.54-1.97-6.39-5.98c0.13-3.68,0-6.55,6.16-6.09
			c5.93,0.44,11.95,0.11,17.92,0.08c2.74-0.02,6.59,0.54,5.27-3.28c-0.53-1.55-3.36-3.52-5.24-3.6c-9.37-0.37-18.78-0.04-28.17-0.25
			c-4.65-0.1-5.83,1.59-5.69,5.13C850.64,621.3,850.46,627.25,850.44,633.2z M777.59,609.98c-3.28,0.15-4.42,0.16-5.55,0.27
			c-9.32,0.87-15.6,5.06-16.69,11.13c-1.07,5.93,3.54,10.61,13.28,13.48c3.75,1.1,7.8,1.81,11.14,3.49c2.1,1.06,4.76,3.96,4.29,5.36
			c-0.66,1.97-4.13,4.77-6.15,4.64c-5.75-0.38-11.36-2.15-17.07-3.21c-1.97-0.37-5.04-1.02-5.9-0.23c-2.26,2.07-2.63,4.62,1.08,6.51
			c8.94,4.55,18.23,6.51,28.46,3.31c6.48-2.03,10.53-5.71,10.7-11.61c0.16-5.67-3.65-9.36-9.74-11.38
			c-4.22-1.4-8.93-2.01-12.74-3.93c-2.7-1.36-4.24-4.32-6.3-6.56c3.08-1.27,6.1-3.42,9.27-3.58c3.46-0.18,7.13,1.31,10.57,2.38
			c3.16,0.98,4.95,0.91,6.53-2.16c1.74-3.38-0.53-4.5-3.21-5.24C784.99,611.36,780.27,610.55,777.59,609.98z M1059.51,616.68
			c-11.52-7.88-26.53-8.64-37.75-1.91c-10.15,6.09-14.09,16.93-9.67,26.6c4.66,10.19,16.49,15.78,30.9,14.59
			c14.1-1.16,17.52-4.48,17.17-16.77c-0.08-2.71,1.06-6.07-4.63-5.81c-5.5,0.25-2.91,3.69-3.45,5.84c-0.75,2.96,1.9,6.78-3.73,8.41
			c-7.43,2.15-14.48,2.31-20.98-1.86c-8.1-5.2-9.95-13.88-4.61-20.98c5.58-7.41,17.1-10.11,27-5.31
			C1055.39,622.22,1057.73,621.22,1059.51,616.68z M617.72,626.79c0.01,0,0.02,0,0.03,0c0,3.56-0.11,7.13,0.02,10.69
			c0.41,11.39,9.01,18.52,22.6,18.82c14.58,0.33,24.26-6.66,24.88-18.41c0.4-7.59,0.03-15.21,0.21-22.81
			c0.07-3.14-0.82-4.85-5.16-4.83c-4.7,0.02-4.77,2.32-4.75,5.16c0.07,7.13,0.18,14.26-0.11,21.38c-0.1,2.49-0.73,5.23-2.16,7.37
			c-3.73,5.57-10.35,5.47-16.56,4.35c-5.85-1.06-9.04-4.73-9.14-9.86c-0.15-7.13-0.04-14.25-0.24-21.38
			c-0.09-3.02,1.65-7.04-5.09-7.04c-6.52,0.01-4.22,3.95-4.46,6.59C617.5,620.13,617.72,623.47,617.72,626.79z M951.34,655.3
			c-7.3-13.91-14.35-27.63-21.8-41.19c-0.92-1.67-3.8-3.26-6.02-3.55c-1.92-0.25-5.4,0.94-6.14,2.28
			c-7.75,14.05-15.08,28.26-22.58,42.53c6.78,1.53,10.67,0.3,12.31-5.09c0.51-1.69,2.76-4.16,4.38-4.26
			c7.66-0.44,15.38-0.39,23.05,0c1.48,0.07,3.56,2.27,4.04,3.78C940.29,655.18,943.99,657.13,951.34,655.3z M826.05,636.57
			c0-3.09,0-6.18,0-9.27c0-9.38,0.02-9.23,11.51-10.06c1.98-0.14,3.77-2.16,5.65-3.32c-1.88-1.19-3.71-3.34-5.65-3.42
			c-9.36-0.38-18.78-0.52-28.14-0.08c-3.61,0.17-10.48-2.99-10.13,3.79c0.31,6.11,6.69,2.91,9.98,2.95c5.56,0.06,7.32,1.34,7.1,6.04
			c-0.43,9.5-0.07,19.02-0.15,28.53c-0.02,2.66,0.17,4.57,4.45,4.42c3.91-0.14,5.64-1.14,5.45-4.6
			C825.85,646.56,826.05,641.56,826.05,636.57z M584.38,636.5c0,4.99,0.14,9.97-0.05,14.96c-0.12,3.31,1.3,4.63,5.42,4.61
			c4.38-0.02,4.18-2.23,4.17-4.69c-0.03-7.83-0.01-15.67-0.01-23.5c0-10.05,0-10.07,11.58-10.48c2.87-0.1,6.47,0.21,5.35-3.38
			c-0.47-1.51-3.38-3.46-5.26-3.52c-10.78-0.35-21.58-0.36-32.36-0.04c-2.04,0.06-5.35,1.9-5.73,3.35c-1.08,4.09,3.05,3.5,6.09,3.55
			c1.7,0.03,3.43,0.16,5.11-0.01c4.57-0.46,5.96,1.29,5.76,4.91C584.17,627,584.37,631.75,584.38,636.5z M943.78,549.9
			c8.87-10.95,19.67-12.97,33.2-5.54c-12.78-7.81-13.29-16.68-4.48-27.64c-2.9,1.1-3.77,1.26-4.36,1.69
			c-12.17,8.75-12.17,8.76-25.81,1.74c-0.48-0.25-0.97-0.63-1.48-0.67c-2.19-0.18-4.39-0.25-6.59-0.36
			c0.83,1.73,1.08,4.06,2.59,5.09c13.75,9.39,13.81,9.32,6.48,23.15C943.14,547.69,943.46,548.22,943.78,549.9z M743.38,633.6
			c0.02,0,0.04,0,0.06,0c0-6.17-0.08-12.34,0.03-18.5c0.06-3.12-1.11-5.54-5.2-4.58c-1.79,0.42-4.06,2.88-4.11,4.45
			c-0.35,12.09-0.35,24.19-0.03,36.28c0.04,1.59,2.17,4.07,3.92,4.53c3.93,1.01,5.42-1.18,5.35-4.39
			C743.3,645.46,743.38,639.53,743.38,633.6z M588.73,691.64c-0.15,0.02-0.3,0.03-0.46,0.05c0.53,3.21,0.78,9.14,1.64,9.2
			c5.96,0.42,12.45,0.59,17.94-1.07c4.34-1.32,1.7-16.54-3.03-17.56c-4.52-0.97-9.69-1.14-14.15-0.22
			c-1.37,0.28-1.35,5.32-1.93,8.18C588.65,690.68,588.73,691.17,588.73,691.64z M646.04,704.24c-0.08,0.81-0.15,1.63-0.23,2.44
			c4.4,0.04,9.53,1.26,12.96-0.24c2.79-1.23,4.73-5.64,4.98-8.76c0.94-11.43,0.53-11.67-9.79-11.63c-5.53,0.02-9.3,2.43-9.65,7.23
			c-0.32,4.44,2.78,7.09,7.9,7.84c2.2,0.32,4.53,0.05,6.8,0.05c0.07,0.7,0.15,1.4,0.22,2.1
			C654.83,703.6,650.44,703.92,646.04,704.24z M712.16,738c-3.21,6.6-9.64,1.62-14.86,3.64c5.6,3.88,10.66,4.21,15.88,1.39
			c2.99-1.61,5.69-16.83,2.76-18.03c-3.72-1.53-9.04-1.76-13.08-0.81c-2.62,0.62-6.02,4.53-5.74,6.65c0.34,2.56,3.79,5.3,6.71,6.97
			C705.63,738.84,708.95,738,712.16,738z M913.49,729.34c0.35-5.76-3.69-10.44-9.34-10.83c-6.09-0.42-10.52,3.33-11.02,9.34
			c-0.52,6.27,3.52,10.95,9.67,11.2C908.81,739.29,913.12,735.38,913.49,729.34z M878.31,485.58c-0.42,2.42-1.6,4.55-0.79,5.62
			c1.27,1.67,3.71,2.98,5.99,3.8c5.27,1.88,11.8,9.62,15.04,5.15c4.22-5.82-7.66-6.45-11.56-10.19
			C885.24,488.28,882.25,487.5,878.31,485.58z M743.27,738.91c0.99,0.01,1.97,0.02,2.96,0.03c0.18-2.41-0.29-5.04,0.71-7.18
			c0.97-2.07,3.46-3.65,5.28-5.44c1.43,1.73,3.21,3.33,4.21,5.21c1.21,2.27,1.75,4.78,2.59,7.19c0.58-2.63,1.31-5.25,1.69-7.9
			c0.16-1.13-0.18-2.4-0.66-3.49c-1.68-3.84-15.22-6.31-16.39-2.91C742.11,728.91,743.27,734.05,743.27,738.91z M949.81,701.63
			c1.12-0.01,2.24-0.02,3.36-0.03c0.22-2.7-0.21-5.61,0.89-8.03c0.81-1.79,3.62-2.95,5.54-4.38c1.29,1.58,3.19,3.03,3.73,4.77
			c0.77,2.49,0.56,5.2,0.76,7.82c0.74-0.03,1.47-0.07,2.21-0.1c2.81-4.26,2.84-9.48-0.54-12.77c-2.29-2.22-8.4-1.8-12.84-2.29
			c-0.94-0.1-2.93,0.93-2.96,1.5C949.7,692.61,949.81,697.13,949.81,701.63z M725.79,734.99c0.02-0.73,0.05-1.45,0.07-2.18
			c2.6-0.11,5.22-0.07,7.78-0.4c1.8-0.23,4.69-0.7,4.98-1.55c0.43-1.29-0.64-3.21-1.7-4.5c-3.04-3.72-9.32-4.19-13.42-1.22
			c-3.99,2.89-4.33,8.18-0.73,11.44c3.86,3.49,9.49,3.25,14.05-0.61C733.14,735.65,729.46,735.32,725.79,734.99z M794.36,697.79
			c0.07-0.83,0.13-1.67,0.2-2.5c2.65,0,5.32,0.19,7.93-0.07c1.77-0.17,4.64-0.71,4.91-1.56c0.41-1.3-0.62-3.22-1.68-4.49
			c-3.15-3.77-9.35-4.2-13.45-1.16c-3.94,2.92-4.22,8.25-0.6,11.47c3.9,3.47,9.76,3.13,13.78-0.75
			C801.81,698.42,798.09,698.11,794.36,697.79z M705.43,697.79c0.06-0.83,0.13-1.67,0.19-2.5c2.62,0,5.27,0.18,7.86-0.06
			c1.79-0.17,4.68-0.65,4.98-1.5c0.45-1.28-0.57-3.23-1.63-4.5c-3.12-3.77-9.32-4.22-13.43-1.22c-4.01,2.93-4.32,8.16-0.68,11.46
			c3.88,3.52,9.68,3.21,13.85-0.73C712.88,698.42,709.15,698.11,705.43,697.79z M935.99,701.87c5.56,0.03,10.02-3.54,9.91-7.92
			c-0.11-4.35-4.88-8.25-10.11-7.9c-5.56,0.37-8.9,3.01-9.3,7.73C926.09,698.4,930.29,701.84,935.99,701.87z M929.63,515.54
			c-1.05-1.81-1.21-2.68-1.8-3c-6.11-3.4-12.24-6.78-18.52-9.94c-0.75-0.38-3.54,0.58-3.54,0.91c0,1.47,0.1,3.6,1.21,4.29
			c5.23,3.22,10.68,6.24,16.36,8.86C924.66,517.27,927.19,516.03,929.63,515.54z M790.26,738.73c1.04-0.01,2.08-0.03,3.12-0.04
			c0.14-2.44-0.35-5.08,0.62-7.27c0.89-2.03,3.34-3.58,5.1-5.34c1.66,1.8,3.92,3.42,4.82,5.46c0.99,2.24,0.73,4.87,1.01,7.33
			c0.82-0.06,1.65-0.13,2.47-0.19c0-3.4,1.01-7.12-0.33-10.1c-1-2.22-4.81-4.38-7.79-4.9c-2.71-0.47-8.23,0.88-8.59,2.18
			C789.55,729.96,790.26,734.41,790.26,738.73z M1009.61,689.44c-5.17-4.22-10.19-4.43-14.14-0.59c-3.44,3.34-2.88,8.7,1.18,11.41
			c4.34,2.9,9.56,2.01,12.37-1.68c-3.49-0.55-7.37-0.79-10.8-1.97c-0.75-0.26-0.6-5.24,0.37-5.58
			C1001.78,689.91,1005.53,689.92,1009.61,689.44z M739.16,696.92c-2.87-4.28-5.13-7.64-7.4-11.01c-0.78,0.34-1.57,0.69-2.35,1.03
			c2.26,4.48,4.36,9.04,6.96,13.38c0.41,0.68,4.31,0.91,4.58,0.47c2.81-4.51,5.2-9.19,7.71-13.83c-0.98-0.37-1.96-0.73-2.94-1.1
			C743.69,689.3,741.65,692.73,739.16,696.92z M775.53,724.44c-3.72,0.95-6.5-9.18-9.9-0.89c-1.65,4.03,1.7,9.68,3.6,14.37
			c0.35,0.87,4.58,0.64,7.02,0.92C768.76,733.35,768.39,728.44,775.53,724.44z M886.28,738.8c0.74,0.01,1.47,0.02,2.21,0.03
			c0-4.7-0.41-9.44,0.1-14.11c0.7-6.44-2.78-7.11-9.67-5.08C890.69,723.75,881.24,733.1,886.28,738.8z M875.21,687.6
			c-10.66-1.07-10.66-1.07-10.64,6.55c0,1.66-0.25,3.36,0.1,4.97c0.2,0.91,1.38,1.67,2.12,2.5c0.68-0.9,1.93-1.78,1.96-2.69
			C868.89,694.44,868.19,689.75,875.21,687.6z M618.35,680.43c-1.28-0.06-2.56-0.13-3.84-0.19c0,6.65-0.03,13.3,0.07,19.95
			c0.01,0.46,1.27,1.39,1.53,1.29c0.85-0.31,2.13-0.98,2.14-1.53C618.4,693.44,618.35,686.93,618.35,680.43z M1035.26,701.65
			c1.11-0.01,2.21-0.03,3.32-0.04c0.29-2.68-0.1-5.59,1.05-7.98c1.17-2.43,3.86-4.36,5.89-6.5c-3.87-0.43-9.47-0.14-9.82,1.16
			C1034.52,692.54,1035.26,697.17,1035.26,701.65z M781.32,738.79c0.68-0.05,1.36-0.1,2.05-0.15c0-5.03,0-10.06,0-15.09
			c-0.68,0-1.36-0.01-2.05-0.01C781.32,728.62,781.32,733.7,781.32,738.79z M864.63,738.59c0.5-0.01,1.01-0.03,1.51-0.04
			c0-6.95,0-13.9,0-20.85c-0.5,0.02-1.01,0.03-1.51,0.05C864.63,724.69,864.63,731.64,864.63,738.59z M754.07,686.56
			c-0.54-0.01-1.08-0.01-1.63-0.02c0,4.99,0,9.97,0,14.96c0.54,0.01,1.08,0.02,1.63,0.02C754.07,696.54,754.07,691.55,754.07,686.56
			z M782.31,716.46c-0.95,1.31-1.67,1.94-1.8,2.63c-0.07,0.36,1.05,1.28,1.4,1.2c0.85-0.18,2.01-0.7,2.21-1.27
			C784.29,718.52,783.28,717.75,782.31,716.46z M752.49,679.69c-0.58,1.08-1.17,1.77-1.23,2.5c-0.02,0.28,1.48,1.03,1.73,0.88
			c0.71-0.4,1.32-1.11,1.55-1.8C754.63,681.02,753.56,680.49,752.49,679.69z M782.85,679.86c-0.44,1.01-0.97,1.75-0.98,2.49
			c-0.01,0.25,1.6,0.89,1.88,0.71c0.68-0.44,1.19-1.21,1.38-1.93C785.18,680.92,783.96,680.47,782.85,679.86z"/>
		<path class="st1" d="M849.01,476.84c-19.14-1.15-38.26-2.56-57.42-3.31c-5.95-0.23-12.64,0.17-17.87,2.24
			c-14.06,5.57-27.48,12.27-41.27,18.34c-3.18,1.4-6.79,2.1-10.2,3.12c0.9-1.7,1.58-3.51,2.72-5.1
			c11.72-16.3,23.56-32.54,35.27-48.85c5.52-7.68,9.27-8.64,19.22-4.93c1.47,0.55,3.48,0.08,5.24,0.09
			c-0.46-1.65-0.61-3.43-1.49-4.91c-0.56-0.95-2.5-1.28-3.26-2.2c-2.62-3.23-6.47-6.31-3.23-10.78
			c12.23-16.87,24.24-33.86,36.98-50.46c1.91-2.49,7.27-3.14,11.04-4.64c-1.52,16.92-3.07,33.84-4.5,50.77
			c-0.13,1.56,0.17,3.31,0.92,4.72c4.22,7.89,8.15,15.93,13.14,23.47c5.43,8.2,11.95,15.89,17.93,23.84
			c0.73,0.97,1.05,2.14,1.56,3.22C848.79,471.14,845.4,471.81,849.01,476.84z M814.6,453.15c-0.55-1.45-0.54-2.41-1.08-2.72
			c-6.28-3.53-12.58-7.03-19.04-10.32c-0.62-0.32-2.6,0.62-3.39,1.38c-0.49,0.48-0.35,2.2,0.21,2.54
			c6.15,3.71,12.36,7.36,18.78,10.71C810.88,455.16,813.06,453.72,814.6,453.15z M843.63,468.85c-0.8-1.75-0.86-2.66-1.41-2.97
			c-6.09-3.44-12.18-6.88-18.48-10.02c-0.82-0.41-3.59,0.53-4.08,1.39c-0.49,0.87,0.25,2.97,1.27,3.58
			c5.27,3.18,10.66,6.25,16.32,8.89C838.64,470.36,841.21,469.23,843.63,468.85z"/>
		<path class="st1" d="M689.32,381.71c19.1,1.25,38.25,2.07,57.26,3.91c10.04,0.97,16.99-3.96,25.2-6.64
			c5.43-1.77,10.94-3.37,16.39-5.11c1.2-0.38,2.9-0.78,3.34-1.57c3.51-6.27,10.91-7.43,17.52-9.66
			c-8.54,12.29-16.59,24.85-25.8,36.78c-6.61,8.57-10.19,19.15-21.99,24.65c-1.56,0.73-2.04,3.26-2.77,5.03
			c-1.32,3.19-1.81,6.74-3.79,9.59c-10.28,14.79-20.75,29.5-31.56,44.02c-2.62,3.52-6.79,6.22-10.25,9.3
			c0.5-12.49,0.52-25.01,1.68-37.46c0.82-8.87,1.45-17.12-4.53-25.33c-9.29-12.76-17.44-26.1-25.97-39.23
			c-0.61-0.94-0.47-2.22-0.68-3.35c3.66,1.73,7.24,3.63,11.05,5.11c1.18,0.46,3-0.23,4.52-0.39c-0.23-1.47,0.19-3.5-0.81-4.29
			C695.52,384.99,692.3,383.46,689.32,381.71z M728.94,405.95c-0.85-1.34-1.05-2.19-1.65-2.54c-6.03-3.45-12.08-6.88-18.29-10.1
			c-0.68-0.35-2.89,0.34-3.4,1.04c-0.58,0.8-0.57,2.79,0.1,3.19c6.17,3.65,12.47,7.17,18.95,10.41
			C725.34,408.31,727.45,406.68,728.94,405.95z M753.34,424.37c1.66-1.31,3.17-1.97,3.44-2.88c0.26-0.85-0.46-2.39-1.35-2.92
			c-5.48-3.26-11.06-6.43-16.81-9.35c-0.95-0.48-3.21,0.01-4.23,0.71c-0.71,0.49-0.91,2.74-0.35,3.09
			C740.3,416.88,746.75,420.54,753.34,424.37z"/>
		<path class="st2" d="M712.87,492.02c3.46-3.08,7.63-5.79,10.25-9.3c10.81-14.52,21.28-29.23,31.56-44.02
			c1.98-2.85,2.47-6.41,3.79-9.59c0.73-1.77,1.21-4.3,2.77-5.03c11.8-5.5,15.37-16.08,21.99-24.65
			c9.21-11.93,17.26-24.49,25.8-36.78c2.26-7.34-6.49-8.57-10.05-12.69c0.04-0.54,0.08-1.09,0.12-1.63
			c0.28,0.02,0.61-0.03,0.84,0.07c12.9,5.3,22.8,2.65,30.04-7.81c-0.09,0.71,0.04,1.5-0.3,2.1c-6.06,10.67-4.1,19.26,10.7,24.6
			c-0.58,0.35-1.16,0.7-1.74,1.05c-4.64-0.96-9.27-1.93-13.91-2.89c-3.76,1.5-9.12,2.15-11.04,4.64
			c-12.74,16.6-24.74,33.59-36.98,50.46c-3.24,4.47,0.61,7.55,3.23,10.78c0.75,0.93,2.7,1.26,3.26,2.2
			c0.87,1.48,1.03,3.26,1.49,4.91c-1.76,0-3.77,0.46-5.24-0.09c-9.95-3.71-13.7-2.75-19.22,4.93
			c-11.71,16.3-23.55,32.55-35.27,48.85c-1.14,1.58-1.83,3.39-2.72,5.1c0,0-0.08,0.04-0.08,0.04c-0.5,0.48-0.99,0.96-1.49,1.43
			c1.12,2.19,1.9,4.58,3.46,6.53c1.81,2.27,4.3,4.16,6.5,6.22c0,0,0.05-0.05,0.05-0.05c-0.56,0.03-1.26,0.27-1.67,0.07
			c-12.75-5.92-22.72-3.13-30.89,7.26c5.01-9.96,8.1-19.16-5.16-25.84c0.14-0.67,0.27-1.34,0.41-2.01
			c5.52,1.02,11.04,2.04,16.56,3.06c0.87-0.56,1.73-1.11,2.6-1.67C712.51,492.29,712.87,492.02,712.87,492.02z"/>
		<path class="st3" d="M1002.61,655.19c-7.38,2.3-11.66-0.02-14.24-5.42c-2.7-5.64-7.02-8.58-14.99-7.73
			c-4.38,0.47-6.18,1.36-5.7,5.04c0.24,1.88,0.68,4.04-0.16,5.64c-0.73,1.39-3.05,2.78-4.85,2.98c-1.31,0.15-4.2-1.63-4.22-2.58
			c-0.28-13.32-0.27-26.65-0.03-39.98c0.02-0.95,2.36-2.69,3.61-2.69c8.51,0.03,17.06,0.07,25.51,0.82
			c7.43,0.66,12.48,4.44,14.25,10.68c1.77,6.23,0.66,12.42-5.75,16.07c-5.18,2.95-3.41,4.8-0.89,7.7
			C997.78,648.76,1000.1,651.98,1002.61,655.19z M967.72,625.55c0.21,5.06-2.43,10.58,7.98,9.98c12.59-0.73,17.69-2.63,17.92-9.01
			c0.24-6.47-4.84-9.13-17.42-9.14C967.72,617.37,967.72,617.37,967.72,625.55z"/>
		<path class="st2" d="M721.77,655.09c-8.35,3.15-11.78-1.27-14.56-6.12c-2.74-4.77-6.35-7.13-13.2-6.61
			c-5.02,0.38-7.49,1.32-6.8,5.78c0.22,1.4,0.61,3.13-0.12,4.21c-1,1.47-3.02,3.38-4.59,3.38c-1.57,0-4.48-2.11-4.51-3.34
			c-0.35-12.83-0.34-25.68-0.07-38.51c0.03-1.2,2.51-3.39,3.85-3.39c8.78,0.03,17.73-0.25,26.28,1.08
			c13.52,2.1,19.22,17.02,9.2,25.02c-5.72,4.56-4.63,7.23-0.74,11.32C718.57,650.07,720.02,652.66,721.77,655.09z M686.9,628.11
			c-0.32,3.16-1.42,7.76,7.98,7.31c12.86-0.61,17.99-2.47,18.23-8.62c0.26-6.63-4.81-9.42-17.13-9.43
			C686.9,617.37,686.9,617.37,686.9,628.11z"/>
		<path class="st2" d="M850.45,633.2c0.01-5.95,0.19-11.9-0.06-17.85c-0.15-3.55,1.03-5.24,5.69-5.13
			c9.39,0.21,18.8-0.13,28.17,0.25c1.88,0.08,4.71,2.05,5.24,3.6c1.32,3.82-2.53,3.27-5.27,3.28c-5.98,0.03-11.99,0.36-17.92-0.08
			c-6.16-0.46-6.03,2.41-6.16,6.09c-0.15,4.01,0.68,6.36,6.39,5.98c5.09-0.34,10.28-0.36,15.34,0.14c1.67,0.16,3.05,2.38,4.56,3.66
			c-1.58,1.22-3.04,3.35-4.75,3.5c-5.35,0.47-10.81,0.41-16.2,0.14c-5.99-0.3-5.23,2.97-5.26,6.07c-0.02,3.12-0.73,6.29,5.28,6.01
			c6.81-0.33,13.68-0.31,20.48,0.07c1.67,0.09,3.17,2.2,4.75,3.38c-1.57,1.21-3.09,3.42-4.72,3.47c-10.23,0.33-20.5,0.36-30.73-0.01
			c-1.68-0.06-4.49-2.53-4.61-4.02C850.14,645.59,850.44,639.39,850.45,633.2z"/>
		<path class="st2" d="M777.59,609.98c2.68,0.58,7.4,1.38,11.95,2.65c2.69,0.75,4.96,1.86,3.21,5.24c-1.58,3.07-3.38,3.14-6.53,2.16
			c-3.44-1.07-7.11-2.55-10.57-2.38c-3.17,0.16-6.18,2.31-9.27,3.58c2.06,2.25,3.61,5.2,6.3,6.56c3.8,1.92,8.52,2.53,12.74,3.93
			c6.09,2.02,9.91,5.71,9.74,11.38c-0.17,5.9-4.22,9.58-10.7,11.61c-10.22,3.2-19.51,1.25-28.46-3.31
			c-3.71-1.89-3.34-4.44-1.08-6.51c0.86-0.79,3.93-0.14,5.9,0.23c5.71,1.06,11.32,2.83,17.07,3.21c2.02,0.13,5.49-2.67,6.15-4.64
			c0.47-1.4-2.18-4.3-4.29-5.36c-3.34-1.68-7.39-2.38-11.14-3.49c-9.74-2.87-14.35-7.54-13.28-13.48
			c1.1-6.07,7.37-10.27,16.69-11.13C773.17,610.14,774.31,610.13,777.59,609.98z"/>
		<path class="st3" d="M1059.51,616.68c-1.78,4.54-4.12,5.54-9.76,2.81c-9.9-4.8-21.42-2.1-27,5.31
			c-5.34,7.09-3.49,15.78,4.61,20.98c6.49,4.17,13.55,4.01,20.98,1.86c5.63-1.63,2.99-5.45,3.73-8.41c0.54-2.15-2.05-5.59,3.45-5.84
			c5.7-0.26,4.56,3.1,4.63,5.81c0.35,12.29-3.07,15.61-17.17,16.77c-14.41,1.18-26.24-4.41-30.9-14.59
			c-4.42-9.67-0.48-20.51,9.67-26.6C1032.99,608.04,1047.99,608.8,1059.51,616.68z"/>
		<path class="st2" d="M617.72,626.79c0-3.33-0.23-6.67,0.07-9.97c0.24-2.64-2.06-6.58,4.46-6.59c6.74-0.01,5,4.02,5.09,7.04
			c0.21,7.12,0.1,14.25,0.24,21.38c0.1,5.14,3.29,8.8,9.14,9.86c6.21,1.13,12.83,1.23,16.56-4.35c1.43-2.14,2.06-4.88,2.16-7.37
			c0.29-7.12,0.17-14.25,0.11-21.38c-0.03-2.83,0.05-5.14,4.75-5.16c4.34-0.02,5.23,1.7,5.16,4.83c-0.17,7.6,0.19,15.22-0.21,22.81
			c-0.62,11.75-10.3,18.74-24.88,18.41c-13.59-0.3-22.19-7.43-22.6-18.82c-0.13-3.56-0.02-7.13-0.02-10.69
			C617.75,626.79,617.73,626.79,617.72,626.79z"/>
		<path class="st4" d="M951.34,655.3c-7.35,1.82-11.05-0.12-12.76-5.51c-0.48-1.51-2.56-3.71-4.04-3.78
			c-7.67-0.39-15.39-0.44-23.05,0c-1.62,0.09-3.87,2.57-4.38,4.26c-1.64,5.39-5.53,6.62-12.31,5.09
			c7.5-14.27,14.83-28.48,22.58-42.53c0.74-1.34,4.22-2.53,6.14-2.28c2.22,0.29,5.1,1.88,6.02,3.55
			C936.99,627.68,944.04,641.39,951.34,655.3z M922.88,618.81c-3.74,7.44-6.71,13.36-9.93,19.77c7.19,0,13.1,0,19.86,0
			C929.6,632.18,926.58,626.17,922.88,618.81z"/>
		<path class="st2" d="M826.05,636.57c0,4.99-0.2,9.99,0.07,14.98c0.18,3.47-1.54,4.47-5.45,4.6c-4.28,0.15-4.47-1.76-4.45-4.42
			c0.08-9.51-0.27-19.03,0.15-28.53c0.21-4.71-1.55-5.99-7.1-6.04c-3.3-0.03-9.67,3.17-9.98-2.95c-0.34-6.78,6.53-3.62,10.13-3.79
			c9.36-0.44,18.77-0.3,28.14,0.08c1.95,0.08,3.77,2.23,5.65,3.42c-1.88,1.15-3.67,3.18-5.65,3.32
			c-11.49,0.83-11.5,0.68-11.51,10.06C826.05,630.38,826.05,633.47,826.05,636.57z"/>
		<path class="st2" d="M584.37,636.5c0-4.75-0.21-9.5,0.06-14.24c0.21-3.62-1.19-5.37-5.76-4.91c-1.68,0.17-3.4,0.04-5.11,0.01
			c-3.04-0.05-7.16,0.54-6.09-3.55c0.38-1.45,3.69-3.29,5.73-3.35c10.78-0.32,21.59-0.31,32.36,0.04c1.88,0.06,4.79,2.01,5.26,3.52
			c1.12,3.59-2.48,3.27-5.35,3.38c-11.58,0.41-11.58,0.43-11.58,10.48c0,7.83-0.02,15.67,0.01,23.5c0.01,2.46,0.21,4.67-4.17,4.69
			c-4.12,0.02-5.54-1.29-5.42-4.61C584.52,646.48,584.38,641.49,584.37,636.5z"/>
		<path class="st2" d="M943.78,549.9c-0.32-1.68-0.64-2.21-0.46-2.55c7.34-13.83,7.28-13.76-6.48-23.15
			c-1.51-1.03-1.76-3.36-2.59-5.09c2.2,0.11,4.4,0.18,6.59,0.36c0.52,0.04,1,0.43,1.48,0.67c13.65,7.01,13.64,7.01,25.81-1.74
			c0.59-0.42,1.46-0.58,4.36-1.69c-8.81,10.96-8.3,19.83,4.48,27.64C963.45,536.93,952.65,538.94,943.78,549.9z"/>
		<path class="st2" d="M689.32,381.71c2.98,1.75,6.2,3.29,8.8,5.36c1,0.79,0.58,2.82,0.81,4.29c-1.53,0.16-3.34,0.85-4.52,0.39
			c-3.81-1.47-7.38-3.37-11.05-5.11c-3.83,0.39-7.99,0.14-11.39,1.36c-3.64,1.31-6.55,4.02-9.78,6.12c0,0-0.05,0.07-0.05,0.07
			c0.35-0.89,0.59-1.83,1.07-2.67c6.51-11.57,6.57-13.92-4.35-22.05c-0.97-0.72-1.64-1.74-2.46-3.43
			c11.95,6.45,22.77,7.26,31.52-3.3l0.84,0.04l0.83-0.07c-1.44,3.24-2.97,6.45-4.3,9.72C683.7,376.37,684.06,379.81,689.32,381.71z"
			/>
		<path class="st2" d="M743.38,633.6c0,5.93-0.08,11.86,0.03,17.79c0.06,3.22-1.42,5.41-5.35,4.39c-1.76-0.45-3.88-2.93-3.92-4.53
			c-0.32-12.09-0.32-24.19,0.03-36.28c0.05-1.57,2.32-4.04,4.11-4.45c4.08-0.96,5.25,1.46,5.2,4.58c-0.11,6.17-0.03,12.33-0.03,18.5
			C743.42,633.6,743.4,633.6,743.38,633.6z"/>
		<path class="st5" d="M588.73,691.64c0-0.47-0.08-0.96,0.01-1.42c0.58-2.86,0.56-7.89,1.93-8.18c4.46-0.92,9.63-0.75,14.15,0.22
			c4.73,1.02,7.37,16.24,3.03,17.56c-5.49,1.67-11.99,1.5-17.94,1.07c-0.85-0.06-1.11-5.99-1.64-9.2
			C588.42,691.67,588.58,691.66,588.73,691.64z M598.05,700.28c3.34-1.73,5.48-2.84,7.61-3.94c-2.32-1.09-4.53-2.77-6.98-3.06
			c-1.75-0.21-3.82,1.45-5.74,2.28C594.45,696.95,595.96,698.35,598.05,700.28z M597.79,691.53c2.91-1.92,4.83-3.19,6.75-4.46
			c-1.96-0.89-3.91-2.44-5.89-2.47c-1.89-0.03-3.82,1.52-5.73,2.37C594.26,688.23,595.6,689.48,597.79,691.53z"/>
		<path class="st5" d="M646.04,704.24c4.4-0.32,8.8-0.64,13.19-0.96c-0.07-0.7-0.15-1.4-0.22-2.1c-2.27,0-4.59,0.27-6.8-0.05
			c-5.13-0.75-8.22-3.4-7.9-7.84c0.34-4.81,4.11-7.21,9.65-7.23c10.32-0.04,10.74,0.2,9.79,11.63c-0.26,3.12-2.19,7.53-4.98,8.76
			c-3.43,1.5-8.56,0.28-12.96,0.24C645.88,705.86,645.96,705.05,646.04,704.24z M662.3,693.09c-4.05-1.83-6.53-3.84-8.87-3.73
			c-1.76,0.08-3.34,2.88-5,4.48c2.09,1.49,4.05,3.93,6.32,4.16C656.52,698.17,658.68,695.57,662.3,693.09z"/>
		<path class="st5" d="M712.16,738c-3.21,0-6.53,0.84-8.33-0.19c-2.92-1.67-6.37-4.41-6.71-6.97c-0.28-2.12,3.12-6.03,5.74-6.65
			c4.04-0.95,9.36-0.72,13.08,0.81c2.92,1.2,0.22,16.42-2.76,18.03c-5.22,2.82-10.28,2.49-15.88-1.39
			C702.52,739.61,708.95,744.6,712.16,738z M706.92,737.43c2.48-3.1,5.34-5.17,4.91-6.5c-0.61-1.87-3.5-4.16-5.71-4.41
			c-1.56-0.18-5.2,2.83-5.08,4.24C701.22,732.69,704.1,734.44,706.92,737.43z"/>
		<path class="st5" d="M957.27,719.9c1.14,2.26,2.28,4.52,3.54,7.03c2.49-2.65,5.23-5.55,7.96-8.45c0.55,0.33,1.09,0.67,1.64,1
			c-1.98,2.7-3.96,5.41-5.42,7.41c3.25,1.61,6.99,2.7,9.17,4.88c1.02,1.01-0.61,4.32-1.87,6.19c-0.35,0.52-3.67-0.36-5.63-0.6
			c1.66-1.62,3.38-3.2,4.85-4.93c0.1-0.12-1.65-1.35-2.54-2.06c-0.69,1.9-1.4,3.79-2.06,5.69c-0.15,0.43-0.12,0.91-0.18,1.36
			c-1.64-2.07-3.28-4.14-5.03-6.34c-1.77,1.85-4.13,4.29-6.48,6.74c-0.47-0.22-0.95-0.44-1.42-0.65c1.28-2.08,2.56-4.15,3.84-6.23
			c0.12-0.58,0.24-1.16,0.36-1.74c-0.71,0.19-1.43,0.37-2.14,0.56c-8.51-1.48-9.59-3.43-5.45-9.83c0.44,0.32,0.88,0.64,1.32,0.97
			c-0.13,0.69-0.58,1.47-0.34,2.04c0.66,1.5,1.62,2.9,2.46,4.35c0.86-1.44,1.85-2.83,2.52-4.33c0.25-0.56-0.23-1.35-0.37-2.03
			C956.43,720.56,956.85,720.23,957.27,719.9z"/>
		<path class="st5" d="M913.49,729.34c-0.36,6.03-4.68,9.95-10.69,9.71c-6.15-0.24-10.19-4.93-9.67-11.2
			c0.5-6.01,4.93-9.77,11.02-9.34C909.79,718.9,913.83,723.59,913.49,729.34z M894.38,728.77c3.89,3.11,6.11,6.42,8.91,6.81
			c5.54,0.77,5.67-3.58,5.68-6.79c0.01-3.22-0.16-7.55-5.67-6.81C900.5,722.36,898.27,725.67,894.38,728.77z"/>
		<path class="st2" d="M878.31,485.58c3.94,1.93,6.93,2.7,8.68,4.38c3.9,3.74,15.78,4.37,11.56,10.19
			c-3.24,4.47-9.77-3.27-15.04-5.15c-2.28-0.81-4.72-2.13-5.99-3.8C876.71,490.13,877.89,488,878.31,485.58z"/>
		<path class="st5" d="M743.27,738.91c0-4.86-1.16-10,0.38-14.48c1.17-3.4,14.71-0.93,16.39,2.91c0.48,1.09,0.83,2.36,0.66,3.49
			c-0.38,2.65-1.1,5.27-1.69,7.9c-0.83-2.41-1.38-4.92-2.59-7.19c-1-1.89-2.78-3.49-4.21-5.21c-1.82,1.79-4.31,3.37-5.28,5.44
			c-1,2.14-0.54,4.77-0.71,7.18C745.24,738.93,744.26,738.92,743.27,738.91z"/>
		<path class="st5" d="M949.81,701.63c0-4.51-0.11-9.02,0.14-13.52c0.03-0.57,2.03-1.6,2.96-1.5c4.44,0.49,10.55,0.07,12.84,2.29
			c3.39,3.29,3.36,8.51,0.54,12.77c-0.74,0.03-1.47,0.07-2.21,0.1c-0.21-2.62,0.01-5.32-0.76-7.82c-0.54-1.74-2.44-3.19-3.73-4.77
			c-1.92,1.44-4.73,2.6-5.54,4.38c-1.1,2.42-0.66,5.33-0.89,8.03C952.05,701.62,950.93,701.62,949.81,701.63z"/>
		<path class="st5" d="M725.79,734.99c3.68,0.33,7.35,0.66,11.03,0.99c-4.56,3.86-10.19,4.1-14.05,0.6
			c-3.6-3.26-3.26-8.55,0.73-11.44c4.11-2.97,10.39-2.5,13.42,1.22c1.06,1.3,2.13,3.22,1.7,4.5c-0.29,0.86-3.18,1.32-4.98,1.55
			c-2.56,0.33-5.18,0.28-7.78,0.4C725.84,733.54,725.81,734.27,725.79,734.99z M733.97,729.77c-3.11-4.33-6.22-4.87-9.62,0
			C728,729.77,730.99,729.77,733.97,729.77z"/>
		<path class="st5" d="M794.36,697.79c3.73,0.32,7.45,0.63,11.08,0.94c-4.02,3.88-9.88,4.22-13.78,0.75
			c-3.62-3.22-3.34-8.55,0.6-11.47c4.1-3.04,10.3-2.61,13.45,1.16c1.07,1.28,2.09,3.19,1.68,4.49c-0.27,0.84-3.13,1.38-4.91,1.56
			c-2.61,0.26-5.28,0.07-7.93,0.07C794.49,696.12,794.43,696.96,794.36,697.79z M793.04,692.48c4.26,0,7.2,0,11.12,0
			C800.42,688.47,797.48,687.61,793.04,692.48z"/>
		<path class="st2" d="M849.01,476.84c-3.61-5.03-0.21-5.7,4.78-5.37c4.84,2.79,9.86,5.38,14.41,8.47c1.5,1.02,1.78,3.31,2.61,5.02
			c-2.05,0.02-4.5,0.66-6.08-0.06C859.33,482.47,854.23,479.56,849.01,476.84z"/>
		<path class="st5" d="M1026.63,688.86c1.56,1.55,3.13,3.09,4.69,4.64c-1.64,0.6-3.22,1.53-4.92,1.71
			c-2.65,0.29-5.39,0.08-8.09,0.08c-0.05,0.83-0.1,1.67-0.15,2.5c3.59,0.3,7.17,0.61,10.66,0.9c-2.99,3.62-7.42,4.37-11.86,1.87
			c-4.58-2.57-5.65-7.42-2.48-11.14c3.22-3.78,8.02-4.27,12.44-1.24c0.02,0.02-0.28,0.37-0.44,0.57c-3.15,0.74-6.3,1.49-9.45,2.23
			c0.22,0.58,0.43,1.16,0.65,1.74C1021.11,692.21,1026.38,694.96,1026.63,688.86z"/>
		<path class="st5" d="M705.43,697.79c3.73,0.31,7.45,0.63,11.14,0.94c-4.17,3.94-9.97,4.25-13.85,0.73
			c-3.64-3.3-3.33-8.52,0.68-11.46c4.11-3.01,10.31-2.55,13.43,1.22c1.06,1.28,2.08,3.23,1.63,4.5c-0.3,0.85-3.19,1.33-4.98,1.5
			c-2.59,0.25-5.23,0.06-7.86,0.06C705.55,696.12,705.49,696.96,705.43,697.79z M704.02,692.55c4.33,0,7.27,0,11.09,0
			C711.33,688.21,708.28,687.76,704.02,692.55z"/>
		<path class="st5" d="M935.99,701.87c-5.69-0.03-9.89-3.47-9.51-8.09c0.4-4.72,3.75-7.37,9.3-7.73c5.23-0.35,10.01,3.55,10.11,7.9
			C946.01,698.33,941.54,701.9,935.99,701.87z M944.38,695.05c-3.76-2.94-5.78-5.72-7.72-5.69c-2.03,0.04-5,2.55-5.63,4.44
			c-0.41,1.24,2.38,4.42,4.13,4.66C937.31,698.75,939.87,696.86,944.38,695.05z"/>
		<path class="st2" d="M929.63,515.54c-2.44,0.48-4.98,1.72-6.29,1.12c-5.68-2.62-11.13-5.64-16.36-8.86
			c-1.12-0.69-1.22-2.82-1.21-4.29c0-0.34,2.79-1.29,3.54-0.91c6.28,3.16,12.41,6.54,18.52,9.94
			C928.42,512.87,928.58,513.73,929.63,515.54z"/>
		<path class="st5" d="M672.89,722.99c2.26,3.78,4.55,7.54,6.77,11.33c0.72,1.23,1.28,2.52,2.34,4.63
			c-4.72-1.82-8.46-4.39-12.24-4.43c-3.95-0.04-7.93,2.37-13.6,4.28c3.34-5.68,6.31-10.73,9.28-15.78c0.86,0.16,1.72,0.32,2.57,0.48
			c-0.96,2.44-1.92,4.88-2.98,7.56c2.83,0,5.48,0,8.25,0c-1.08-2.75-2.04-5.19-2.99-7.63C671.15,723.27,672.02,723.13,672.89,722.99
			z"/>
		<path class="st6" d="M790.26,738.73c0-4.32-0.71-8.77,0.42-12.87c0.36-1.3,5.88-2.65,8.59-2.18c2.98,0.52,6.79,2.68,7.79,4.9
			c1.34,2.98,0.33,6.7,0.33,10.1c-0.82,0.06-1.65,0.13-2.47,0.19c-0.28-2.46-0.02-5.09-1.01-7.33c-0.9-2.04-3.16-3.65-4.82-5.46
			c-1.76,1.76-4.21,3.31-5.1,5.34c-0.96,2.19-0.47,4.83-0.62,7.27C792.34,738.71,791.3,738.72,790.26,738.73z"/>
		<path class="st6" d="M921.73,737.7c-0.25-0.11-0.57-0.16-0.74-0.32c-5.35-5.11-5.92-12.55-1.05-16.45
			c4.09-3.28,8.61-3.31,12.75-0.1c5.15,4,4.36,11.49-1.52,16.8c-0.71-0.58-1.41-1.15-2.12-1.73c0.96-3.66,2.4-7.31,2.57-11
			c0.05-1.09-3.51-3.22-5.38-3.19c-1.85,0.03-5.27,2.25-5.2,3.38c0.26,3.67,1.8,7.28,2.85,10.91
			C923.18,736.56,922.46,737.13,921.73,737.7z"/>
		<path class="st6" d="M989.45,697.1c-2.3,4.61-7.11,5.9-11.69,4.03c-2.81-1.15-5.75-4.94-5.61-7.43c0.14-2.45,3.56-5.8,6.52-6.86
			c5.04-1.8,9.18,0.48,11.25,4.86l-0.2,0.6l0.58,0.43c-0.07,1.1-0.15,2.19-0.22,3.29C989.43,696.2,989.22,696.56,989.45,697.1z
			 M980.37,701.47c3.22-3.39,6.56-5.45,6.22-6.9c-0.5-2.13-3.63-3.83-5.64-5.71c-1.91,1.68-5,3.2-5.37,5.09
			C975.24,695.67,977.87,697.79,980.37,701.47z"/>
		<path class="st6" d="M824.73,701.53c-0.16,1.89-0.32,3.77-0.48,5.66c-0.98-0.02-1.96-0.03-2.94-0.05c0-6.16-0.19-12.33,0.28-18.46
			c0.05-0.63,4.05-1.04,6.22-1.56c2.04-0.06,4.08-0.12,6.12-0.18c5.79,1.51,6.9,5.04,5.85,9.5l0.01,0.06
			c-0.5,0.73-0.99,1.46-1.49,2.2c-0.69-0.62-1.39-1.23-2.08-1.85c-1.16-2.57-2.01-5.3-3.74-7.57c-0.32-0.42-6.06,0.99-6.1,1.68
			c-0.14,2.6,1.04,5.25,1.73,7.88C826.98,699.74,825.86,700.64,824.73,701.53z"/>
		<path class="st6" d="M640.19,697.6c-5.18,4.76-10.71,5.48-14.91,1.93c-3.68-3.11-3.43-8.51,0.53-11.34
			c4.83-3.46,9.82-2.49,14.67,2.84C640.39,693.21,640.29,695.41,640.19,697.6z M631.71,701.5c3.1-3.48,6.35-5.61,5.96-7.05
			c-0.57-2.11-3.75-3.73-5.82-5.56c-1.85,1.72-4.9,3.31-5.21,5.21C626.37,695.81,629.07,697.87,631.71,701.5z"/>
		<path class="st5" d="M1009.61,689.44c-4.08,0.49-7.84,0.47-11.02,1.59c-0.97,0.34-1.12,5.32-0.37,5.58
			c3.43,1.17,7.3,1.42,10.8,1.97c-2.81,3.69-8.03,4.58-12.37,1.68c-4.06-2.72-4.62-8.08-1.18-11.41
			C999.42,685.01,1004.44,685.22,1009.61,689.44z"/>
		<path class="st5" d="M739.16,696.92c2.49-4.19,4.53-7.62,6.57-11.05c0.98,0.37,1.96,0.73,2.94,1.1c-2.51,4.64-4.9,9.32-7.71,13.83
			c-0.27,0.44-4.17,0.21-4.58-0.47c-2.6-4.34-4.7-8.9-6.96-13.38c0.78-0.34,1.57-0.69,2.35-1.03
			C734.02,689.28,736.29,692.64,739.16,696.92z"/>
		<path class="st5" d="M775.53,724.44c-7.14,4-6.78,8.91,0.72,14.4c-2.44-0.28-6.67-0.05-7.02-0.92c-1.9-4.69-5.25-10.34-3.6-14.37
			C769.03,715.26,771.81,725.39,775.53,724.44z"/>
		<path class="st5" d="M691.37,700.32c-4.27,2.88-9.07,2.4-11.57-0.98c-1.83-2.48-2.43-7.22-0.74-9.44
			c1.62-2.12,6.88-2.38,10.61-3.26c0.94-0.22,2.14,0.31,3.22,0.49c0.03,2.01,0.05,4.01,0.08,6.02c-2.18-2.86-4.7-5.94-9.09-3.08
			c-1.65,1.08-1.61,3.96-2.34,6.02c3.13,0.74,6.27,1.48,9.4,2.22C691.08,698.98,691.22,699.65,691.37,700.32z"/>
		<path class="st6" d="M816.28,730.44c0.83-0.11,1.76-0.07,2.49-0.37c1.66-0.68,3.22-1.53,4.81-2.31c-1.68-0.57-3.31-1.42-5.05-1.61
			c-1.47-0.16-3.06,0.43-5.44,0.83c4.74-3.83,9.62-5.11,11.52-2.4c2.45,3.49,2.62,8.15,3.24,12.37c0.04,0.3-4.27,1.05-6.56,1.6
			c-0.03-0.49-0.07-0.98-0.1-1.47c1.03-1.43,2.06-2.87,3.09-4.3c-2.54,0.01-5.09,0.02-7.63,0.03
			C816.52,732.01,816.4,731.23,816.28,730.44z"/>
		<path class="st6" d="M882.92,693.11c2.21-0.17,4.41-0.34,6.92-0.54c-1.55-6.16-6.95-2.63-10.63-3.01c-0.07-0.7-0.13-1.39-0.2-2.09
			c3.29-0.25,7.09-1.44,9.72-0.46c2.27,0.85,4.66,4.33,4.37,6.38c-0.38,2.65,4.91,9.03-4.92,7.69c-0.03-0.71-0.05-1.41-0.08-2.12
			c4.02-6.59-2.3-3.55-5.08-3.81C882.98,694.47,882.95,693.79,882.92,693.11z"/>
		<path class="st6" d="M886.28,738.8c-5.04-5.7,4.41-15.05-7.37-19.16c6.89-2.03,10.37-1.36,9.67,5.08c-0.51,4.67-0.1,9.4-0.1,14.11
			C887.75,738.82,887.02,738.81,886.28,738.8z"/>
		<path class="st6" d="M847.06,693.26c2.69-0.24,5.38-0.48,8.47-0.76c-2.13-5.88-7.49-2.58-12.62-3.16c4.77-3.37,10-4.76,12.56-1.82
			c2.73,3.13,2.59,8.09,3.18,12.31c0.04,0.29-4.29,1.01-6.59,1.53c-0.01-0.51-0.03-1.02-0.04-1.53c1.01-1.42,2.03-2.84,3.04-4.26
			c-2.54,0.01-5.09,0.03-7.63,0.04C847.31,694.82,847.19,694.04,847.06,693.26z"/>
		<path class="st5" d="M875.21,687.6c-7.02,2.15-6.32,6.84-6.46,11.33c-0.03,0.91-1.27,1.79-1.96,2.69
			c-0.74-0.83-1.92-1.59-2.12-2.5c-0.35-1.61-0.1-3.31-0.1-4.97C864.55,686.53,864.55,686.53,875.21,687.6z"/>
		<path class="st6" d="M768.29,693.04c1.12-0.46,2.23-0.93,3.35-1.39c-0.8-0.86-1.51-2.37-2.41-2.46c-2.57-0.25-5.22,0.09-7.84,0.19
			c-0.12-0.63-0.24-1.26-0.36-1.89c3.28-0.25,6.92-1.32,9.72-0.47c2.11,0.64,3.73,3.6,4.5,5.79c0.76,2.17,0.37,4.69,0.02,7.01
			c-0.07,0.47-2.19,0.73-3.36,1.08c-0.18-0.84-0.37-1.68-0.55-2.53c-1.06-1.24-2.11-2.47-3.17-3.71
			C768.23,694.12,768.26,693.58,768.29,693.04z"/>
		<path class="st5" d="M618.35,680.43c0,6.51,0.05,13.01-0.1,19.52c-0.01,0.55-1.29,1.22-2.14,1.53c-0.26,0.1-1.53-0.83-1.53-1.29
			c-0.1-6.65-0.07-13.3-0.07-19.95C615.78,680.3,617.06,680.36,618.35,680.43z"/>
		<path class="st6" d="M850.4,730.21c1.1-0.48,2.2-0.95,3.31-1.43c-0.82-0.85-1.52-2.3-2.48-2.43c-2.53-0.34-5.18-0.12-7.78-0.12
			c-0.12-0.54-0.23-1.08-0.35-1.62c3.32-0.23,7.15-1.4,9.81-0.4c2.25,0.85,3.68,4.09,4.48,6.51c0.72,2.18,0.17,4.67-0.08,7.01
			c-0.02,0.17-2.13,0.18-3.27,0.26c-0.19-0.82-0.38-1.63-0.57-2.45c-1.06-1.23-2.11-2.47-3.17-3.7
			C850.33,731.29,850.36,730.75,850.4,730.21z"/>
		<path class="st5" d="M1035.26,701.65c0-4.48-0.73-9.11,0.44-13.36c0.36-1.3,5.96-1.59,9.82-1.16c-2.03,2.15-4.72,4.07-5.89,6.5
			c-1.15,2.39-0.76,5.3-1.05,7.98C1037.47,701.62,1036.36,701.64,1035.26,701.65z"/>
		<path class="st6" d="M692.96,693.14c-0.03-2.01-0.05-4.01-0.08-6.02c0-2.22,0-4.45,0-6.67c1.11-0.03,2.22-0.06,3.33-0.1
			c0,6.72,0,13.45,0,20.17c-1.61-0.07-3.23-0.14-4.84-0.21c-0.14-0.67-0.29-1.34-0.43-2c0.06-0.38,0.28-0.69,0.64-0.93
			c0.42-0.58,0.83-1.17,1.25-1.75C692.87,694.8,692.91,693.97,692.96,693.14z"/>
		<path class="st5" d="M781.32,738.79c0-5.08,0-10.17,0-15.25c0.68,0,1.36,0.01,2.05,0.01c0,5.03,0,10.06,0,15.09
			C782.68,738.69,782,738.74,781.32,738.79z"/>
		<path class="st6" d="M864.63,738.59c0-6.95,0-13.9,0-20.84c0.5-0.02,1.01-0.03,1.51-0.05c0,6.95,0,13.9,0,20.85
			C865.64,738.56,865.13,738.58,864.63,738.59z"/>
		<path class="st6" d="M781.88,702.93c0-5.45,0-10.9,0-16.35c0.92,0.01,1.84,0.02,2.76,0.03c0.5,6.39,2.41,12.77-1.2,19.18
			C782.92,704.83,782.4,703.88,781.88,702.93z"/>
		<path class="st5" d="M907.87,691.18c5.07-6.43,9.24-6.87,16.14-1.1c-5.2,0.12-11.2-2.93-13.71,3.01
			C909.49,692.46,908.68,691.82,907.87,691.18z"/>
		<path class="st6" d="M689.65,727.41c-0.95,3.81-1.9,7.62-2.85,11.42c-0.77-0.03-1.55-0.05-2.32-0.08c0-4.44-0.11-8.89,0.22-13.31
			c0.02-0.32,3.2-0.48,4.92-0.72C689.63,725.62,689.64,726.52,689.65,727.41z"/>
		<path class="st5" d="M771.37,698.36c0.18,0.84,0.37,1.68,0.55,2.53c-1.05,0.29-2.07,0.74-3.14,0.84
			c-4.03,0.37-8.57,0.38-9.02-3.88c-0.51-4.88,3.94-5.33,8.53-4.81c-0.03,0.54-0.06,1.08-0.09,1.62c-1.49,1.07-2.98,2.14-4.48,3.21
			c1.74,0.35,3.46,0.81,5.23,1.01C769.72,698.97,770.56,698.55,771.37,698.36z"/>
		<path class="st6" d="M754.07,686.56c0,4.99,0,9.97,0,14.96c-0.54-0.01-1.08-0.02-1.63-0.02c0-4.99,0-9.97,0-14.96
			C752.98,686.55,753.53,686.56,754.07,686.56z"/>
		<path class="st5" d="M850.4,730.21c-0.03,0.54-0.06,1.09-0.1,1.63c-1.5,1.07-2.99,2.14-4.49,3.21c1.74,0.36,3.47,0.82,5.24,1.03
			c0.76,0.09,1.61-0.34,2.42-0.53c0.19,0.82,0.38,1.63,0.57,2.45c-1.04,0.31-2.06,0.79-3.13,0.9c-4.02,0.38-8.58,0.49-9.04-3.85
			C841.35,730.13,845.78,729.67,850.4,730.21z"/>
		<path class="st5" d="M882.92,693.11c0.03,0.68,0.07,1.36,0.1,2.04c-3.55,6.16,2.63,3.25,5.08,3.81c0.03,0.71,0.05,1.41,0.08,2.12
			c-4.28,1.49-8.49,1.52-10.26-2.57C876.61,695.48,878.58,693.2,882.92,693.11z"/>
		<path class="st6" d="M907.87,691.18c0.81,0.64,1.62,1.28,2.42,1.91c1.11,1.91,2.22,3.82,3.34,5.73c-0.69,0.54-1.38,1.08-2.06,1.62
			C907.12,698.25,905.77,695.2,907.87,691.18z"/>
		<path class="st5" d="M847.06,693.26c0.12,0.78,0.25,1.57,0.37,2.35c-0.01,1.11-0.03,2.22-0.04,3.32c-0.1,0.81-0.2,1.62-0.3,2.43
			c-2.43-1.62-4.86-3.23-7.29-4.85l-0.01-0.06C842.21,695.38,844.64,694.32,847.06,693.26z"/>
		<path class="st5" d="M836.23,696.85c0.69,0.62,1.39,1.23,2.08,1.85c-3.26,5.2-8.93,2.31-13.58,2.83c1.13-0.89,2.26-1.79,3.38-2.68
			C830.82,698.18,833.52,697.52,836.23,696.85z"/>
		<path class="st5" d="M911.57,700.44c0.69-0.54,1.38-1.08,2.06-1.62c3.11-0.34,6.22-0.68,9.6-1.05
			C919.56,702.67,919.03,702.77,911.57,700.44z"/>
		<path class="st5" d="M816.28,730.44c0.12,0.79,0.25,1.57,0.37,2.36c0.61,1.38,1.22,2.76,1.82,4.13c-0.71,0.53-1.42,1.06-2.12,1.6
			C810.71,735.25,810.7,733.83,816.28,730.44z"/>
		<path class="st6" d="M668.01,723.5c-0.86-0.16-1.72-0.32-2.57-0.48c1.24-1.41,2.48-2.82,3.71-4.24c1.25,1.4,2.49,2.81,3.74,4.21
			c-0.87,0.14-1.74,0.29-2.6,0.43C669.53,723.44,668.77,723.47,668.01,723.5z"/>
		<path class="st5" d="M781.88,702.93c0.52,0.95,1.04,1.9,1.56,2.85c-2.35,0.62-4.7,1.24-7.05,1.87c-0.27-0.55-0.54-1.09-0.81-1.64
			C777.68,704.98,779.78,703.96,781.88,702.93z"/>
		<path class="st5" d="M929.06,735.9c0.71,0.58,1.41,1.15,2.12,1.73c-3.15,0.02-6.29,0.05-9.44,0.07c0.73-0.57,1.45-1.14,2.18-1.72
			C925.62,735.96,927.34,735.93,929.06,735.9z"/>
		<path class="st6" d="M782.31,716.46c0.97,1.3,1.98,2.07,1.81,2.56c-0.19,0.58-1.35,1.09-2.21,1.27c-0.36,0.08-1.47-0.84-1.4-1.2
			C780.64,718.39,781.36,717.77,782.31,716.46z"/>
		<path class="st5" d="M689.65,727.41c-0.01-0.9-0.02-1.79-0.03-2.69c1.61-0.1,3.22-0.21,4.82-0.31
			C692.85,725.41,691.25,726.41,689.65,727.41z"/>
		<path class="st7" d="M693.36,490.9c-0.14,0.67-0.27,1.34-0.41,2.01c-1.18-1.13-2.35-2.26-3.53-3.4
			C690.73,489.97,692.05,490.43,693.36,490.9z"/>
		<path class="st6" d="M752.49,679.69c1.07,0.79,2.14,1.32,2.05,1.58c-0.24,0.69-0.85,1.4-1.55,1.8c-0.25,0.14-1.75-0.6-1.73-0.88
			C751.32,681.46,751.91,680.77,752.49,679.69z"/>
		<path class="st8" d="M640.19,697.6c0.1-2.19,0.19-4.38,0.29-6.58C640.39,693.21,640.29,695.41,640.19,697.6z"/>
		<path class="st6" d="M782.85,679.86c1.12,0.61,2.33,1.06,2.28,1.27c-0.19,0.71-0.7,1.49-1.38,1.93c-0.28,0.18-1.88-0.46-1.88-0.71
			C781.88,681.61,782.4,680.87,782.85,679.86z"/>
		<path class="st5" d="M833.93,686.94c-2.04,0.06-4.08,0.12-6.12,0.18C829.85,687.07,831.89,687,833.93,686.94z"/>
		<path class="st9" d="M847.09,701.36c0.1-0.81,0.2-1.62,0.3-2.43c1.54,0.3,3.08,0.6,4.63,0.89c0.01,0.51,0.03,1.02,0.04,1.53
			C850.41,701.36,848.75,701.36,847.09,701.36z"/>
		<path class="st6" d="M950.42,719.91c2.28,0,4.57-0.01,6.85-0.01c-0.42,0.33-0.84,0.67-1.25,1c-1.43-0.01-2.85-0.02-4.28-0.03
			C951.3,720.55,950.86,720.23,950.42,719.91z"/>
		<path class="st9" d="M816.34,738.53c0.71-0.53,1.42-1.06,2.12-1.6c0.9,0.05,1.81,0.09,2.71,0.14c0.03,0.49,0.07,0.98,0.1,1.47
			C819.64,738.54,817.99,738.54,816.34,738.53z"/>
		<path class="st1" d="M712.51,492.29c-0.87,0.56-1.73,1.11-2.6,1.67C710.78,493.4,711.65,492.84,712.51,492.29z"/>
		<path class="st7" d="M799.1,348.32c-0.04,0.54-0.08,1.09-0.12,1.63c-0.59-0.45-1.17-0.91-1.76-1.36c0.25-0.19,0.49-0.39,0.74-0.58
			C798.46,347.83,798.83,347.93,799.1,348.32z"/>
		<path class="st1" d="M689.49,361.26c0.36-0.2,0.71-0.39,1.07-0.59c-0.19,0.31-0.38,0.62-0.56,0.93
			C689.99,361.61,689.49,361.26,689.49,361.26z"/>
		<path class="st2" d="M990.3,692.73l-0.58-0.43l0.2-0.6C990.48,691.93,990.61,692.27,990.3,692.73z"/>
		<polygon class="st2" points="730.63,511.46 730.86,511.6 730.68,511.41 		"/>
		<path class="st1" d="M689.58,362.72l-0.83,0.07l-0.84-0.04c0.52-0.5,1.05-0.99,1.57-1.49l0.51,0.34
			C690.02,362.02,689.89,362.39,689.58,362.72z"/>
		<polygon class="st2" points="662.2,394.13 662.02,394.39 662.15,394.2 		"/>
		<path class="st2" d="M989.45,697.1c-0.23-0.53-0.02-0.89,0.63-1.08C989.87,696.38,989.66,696.74,989.45,697.1z"/>
		<path class="st1" d="M720.68,498.71c0.5-0.48,0.99-0.96,1.49-1.43C721.67,497.75,721.17,498.23,720.68,498.71z"/>
		<path class="st7" d="M797.23,348.59c-0.38-0.29-0.75-0.57-1.13-0.86c0.62,0.09,1.25,0.18,1.87,0.27
			C797.72,348.2,797.47,348.4,797.23,348.59z"/>
		<path class="st2" d="M814.6,453.15c-1.54,0.58-3.72,2.01-4.52,1.6c-6.43-3.35-12.64-7-18.78-10.71c-0.57-0.34-0.71-2.06-0.21-2.54
			c0.79-0.76,2.77-1.7,3.39-1.38c6.46,3.29,12.77,6.79,19.04,10.32C814.06,450.73,814.06,451.7,814.6,453.15z"/>
		<path class="st2" d="M843.63,468.85c-2.42,0.38-4.99,1.51-6.37,0.86c-5.66-2.64-11.06-5.71-16.32-8.89
			c-1.02-0.61-1.76-2.71-1.27-3.58c0.49-0.86,3.25-1.8,4.08-1.39c6.3,3.15,12.39,6.59,18.48,10.02
			C842.77,466.19,842.83,467.1,843.63,468.85z"/>
		<path class="st2" d="M728.94,405.95c-1.48,0.73-3.6,2.36-4.29,2.01c-6.48-3.24-12.78-6.76-18.95-10.41
			c-0.67-0.4-0.68-2.39-0.1-3.19c0.51-0.71,2.72-1.4,3.4-1.04c6.2,3.22,12.25,6.65,18.29,10.1
			C727.89,403.76,728.09,404.61,728.94,405.95z"/>
		<path class="st2" d="M753.34,424.37c-6.59-3.83-13.03-7.49-19.28-11.36c-0.56-0.35-0.36-2.6,0.35-3.09
			c1.01-0.7,3.28-1.19,4.23-0.71c5.74,2.93,11.32,6.09,16.81,9.35c0.89,0.53,1.6,2.07,1.35,2.92
			C756.51,422.4,754.99,423.06,753.34,424.37z"/>
		<path class="st0" d="M967.72,625.55c0-8.18,0-8.18,8.48-8.18c12.58,0.01,17.66,2.68,17.42,9.14c-0.24,6.38-5.33,8.28-17.92,9.01
			C965.3,636.14,967.93,630.62,967.72,625.55z"/>
		<path class="st0" d="M686.9,628.11c0-10.74,0-10.74,9.07-10.73c12.32,0.01,17.4,2.8,17.13,9.43c-0.24,6.14-5.37,8-18.23,8.62
			C685.48,635.87,686.58,631.27,686.9,628.11z"/>
		<path class="st0" d="M922.88,618.81c3.7,7.36,6.72,13.37,9.94,19.77c-6.76,0-12.68,0-19.86,0
			C916.17,632.17,919.14,626.25,922.88,618.81z"/>
		<path class="st0" d="M598.05,700.28c-2.09-1.93-3.61-3.32-5.12-4.72c1.93-0.83,3.99-2.49,5.74-2.28c2.45,0.29,4.67,1.97,6.98,3.06
			C603.53,697.44,601.39,698.54,598.05,700.28z"/>
		<path class="st0" d="M597.79,691.53c-2.19-2.05-3.53-3.31-4.87-4.56c1.91-0.85,3.84-2.4,5.73-2.37c1.98,0.03,3.93,1.58,5.89,2.47
			C602.61,688.34,600.7,689.61,597.79,691.53z"/>
		<path class="st0" d="M662.3,693.09c-3.62,2.48-5.78,5.08-7.55,4.9c-2.27-0.22-4.23-2.67-6.32-4.16c1.66-1.59,3.24-4.39,5-4.48
			C655.77,689.25,658.26,691.26,662.3,693.09z"/>
		<path class="st0" d="M706.92,737.43c-2.83-3-5.71-4.75-5.88-6.66c-0.12-1.41,3.51-4.42,5.08-4.24c2.22,0.25,5.1,2.54,5.71,4.41
			C712.27,732.26,709.4,734.34,706.92,737.43z"/>
		<path class="st0" d="M951.74,720.87c1.43,0.01,2.85,0.02,4.28,0.03c0.15,0.68,0.63,1.47,0.37,2.03c-0.67,1.5-1.66,2.89-2.52,4.33
			c-0.84-1.44-1.81-2.85-2.46-4.35C951.15,722.34,951.6,721.56,951.74,720.87z"/>
		<path class="st0" d="M966.73,737.4c0.06-0.45,0.03-0.93,0.18-1.36c0.66-1.9,1.37-3.79,2.06-5.69c0.89,0.71,2.65,1.94,2.54,2.06
			c-1.47,1.73-3.19,3.31-4.85,4.93L966.73,737.4z"/>
		<path class="st0" d="M955.87,729.74c0.71-0.19,1.43-0.37,2.14-0.56c-0.12,0.58-0.24,1.16-0.36,1.74
			C957.05,730.52,956.46,730.13,955.87,729.74z"/>
		<path class="st0" d="M894.38,728.77c3.89-3.1,6.12-6.41,8.91-6.79c5.51-0.75,5.68,3.59,5.67,6.81c-0.01,3.21-0.14,7.56-5.68,6.79
			C900.49,735.19,898.27,731.88,894.38,728.77z"/>
		<path class="st0" d="M733.97,729.77c-2.99,0-5.97,0-9.62,0C727.76,724.9,730.87,725.44,733.97,729.77z"/>
		<path class="st0" d="M793.04,692.48c4.44-4.86,7.38-4.01,11.12,0C800.25,692.48,797.31,692.48,793.04,692.48z"/>
		<path class="st0" d="M1026.63,688.86c-0.26,6.09-5.52,3.35-8.94,3.86c-0.22-0.58-0.43-1.16-0.65-1.74
			c3.15-0.74,6.3-1.49,9.45-2.23L1026.63,688.86z"/>
		<path class="st0" d="M704.02,692.55c4.25-4.78,7.3-4.34,11.09,0C711.29,692.55,708.35,692.55,704.02,692.55z"/>
		<path class="st0" d="M944.38,695.05c-4.51,1.8-7.07,3.69-9.21,3.41c-1.75-0.23-4.54-3.42-4.13-4.66c0.62-1.88,3.59-4.4,5.63-4.44
			C938.6,689.33,940.61,692.12,944.38,695.05z"/>
		<path class="st0" d="M668.01,723.5c0.76-0.03,1.52-0.05,2.28-0.08c0.96,2.44,1.92,4.88,2.99,7.63c-2.77,0-5.42,0-8.25,0
			C666.09,728.38,667.05,725.94,668.01,723.5z"/>
		<path class="st0" d="M929.06,735.9c-1.72,0.03-3.43,0.06-5.15,0.09c-1.05-3.63-2.59-7.24-2.85-10.91
			c-0.08-1.12,3.34-3.35,5.2-3.38c1.87-0.03,5.43,2.1,5.38,3.19C931.46,728.59,930.01,732.23,929.06,735.9z"/>
		<path class="st0" d="M980.37,701.47c-2.5-3.67-5.13-5.8-4.79-7.52c0.37-1.89,3.46-3.41,5.37-5.09c2.01,1.88,5.14,3.58,5.64,5.71
			C986.93,696.02,983.59,698.08,980.37,701.47z"/>
		<path class="st0" d="M836.23,696.85c-2.71,0.66-5.41,1.33-8.12,1.99c-0.69-2.63-1.87-5.28-1.73-7.88c0.04-0.69,5.78-2.1,6.1-1.68
			C834.22,691.55,835.07,694.28,836.23,696.85z"/>
		<path class="st0" d="M631.71,701.5c-2.64-3.62-5.34-5.68-5.07-7.41c0.3-1.9,3.35-3.49,5.21-5.21c2.07,1.83,5.25,3.45,5.82,5.56
			C638.06,695.89,634.81,698.02,631.71,701.5z"/>
		<path class="st0" d="M692.96,693.14c-0.05,0.83-0.09,1.66-0.14,2.48c-0.42,0.58-0.83,1.17-1.25,1.75
			c-0.36,0.24-0.58,0.55-0.64,0.93c-3.13-0.74-6.27-1.48-9.4-2.22c0.73-2.06,0.69-4.95,2.34-6.02
			C688.26,687.2,690.77,690.28,692.96,693.14z"/>
		<path class="st0" d="M821.18,737.08c-0.9-0.05-1.81-0.09-2.71-0.14c-0.61-1.38-1.22-2.76-1.82-4.13c2.54-0.01,5.09-0.02,7.63-0.03
			C823.25,734.21,822.21,735.64,821.18,737.08z"/>
		<path class="st0" d="M888.1,698.96c-2.45-0.56-8.64,2.35-5.08-3.81C885.79,695.41,892.11,692.37,888.1,698.96z"/>
		<path class="st0" d="M852.02,699.82c-1.54-0.3-3.08-0.6-4.63-0.89c0.01-1.11,0.03-2.22,0.04-3.32c2.54-0.01,5.09-0.03,7.63-0.04
			C854.05,696.98,853.03,698.4,852.02,699.82z"/>
		<path class="st0" d="M771.37,698.36c-0.81,0.19-1.65,0.6-2.41,0.51c-1.77-0.21-3.49-0.66-5.23-1.01c1.49-1.07,2.98-2.14,4.48-3.21
			C769.26,695.89,770.32,697.13,771.37,698.36z"/>
		<path class="st0" d="M853.47,735.54c-0.81,0.19-1.66,0.63-2.42,0.53c-1.77-0.21-3.5-0.67-5.24-1.03c1.5-1.07,2.99-2.14,4.49-3.21
			C851.36,733.07,852.41,734.3,853.47,735.54z"/>
		<path class="st5" d="M691.58,697.38c0.42-0.58,0.83-1.17,1.25-1.75C692.41,696.21,691.99,696.8,691.58,697.38z"/>
	</g>
</g>
</svg>
